<?xml version="1.0" encoding="UTF-8" standalone="no"?><svg xmlns="http://www.w3.org/2000/svg" xmlns:xlink="http://www.w3.org/1999/xlink" contentStyleType="text/css" height="447px" preserveAspectRatio="none" style="width:383px;height:447px;background:#FFFFFF;" version="1.1" viewBox="0 0 383 447" width="383px" zoomAndPan="magnify"><defs/><g><!--MD5=[e5da348f9a286ac789819f64e84f1dc7]
class Entreprise--><g id="elem_Entreprise"><rect codeLine="11" fill="#F1F1F1" height="48" id="Entreprise" rx="1.5" ry="1.5" style="stroke:#000000;stroke-width:0.5;" width="94" x="7" y="42"/><ellipse cx="22" cy="58" fill="#ADD1B2" rx="11" ry="11" style="stroke:#181818;stroke-width:1.0;"/><path d="M24.3438,53.6719 C23.4063,53.2344 22.8125,53.0938 21.9375,53.0938 C19.3125,53.0938 17.3125,55.1719 17.3125,57.8906 L17.3125,59.0156 C17.3125,61.5938 19.4219,63.4844 22.3125,63.4844 C23.5313,63.4844 24.6875,63.1875 25.4375,62.6406 C26.0156,62.2344 26.3438,61.7813 26.3438,61.3906 C26.3438,60.9375 25.9531,60.5469 25.4844,60.5469 C25.2656,60.5469 25.0625,60.625 24.875,60.8125 C24.4219,61.2969 24.4219,61.2969 24.2344,61.3906 C23.8125,61.6563 23.125,61.7813 22.3594,61.7813 C20.3125,61.7813 19.0156,60.6875 19.0156,58.9844 L19.0156,57.8906 C19.0156,56.1094 20.2656,54.7969 22,54.7969 C22.5781,54.7969 23.1875,54.9531 23.6563,55.2031 C24.1406,55.4844 24.3125,55.7031 24.4063,56.1094 C24.4688,56.5156 24.5,56.6406 24.6406,56.7656 C24.7813,56.9063 25.0156,57.0156 25.2344,57.0156 C25.5,57.0156 25.7656,56.875 25.9375,56.6563 C26.0469,56.5 26.0781,56.3125 26.0781,55.8906 L26.0781,54.4688 C26.0781,54.0313 26.0625,53.9063 25.9688,53.75 C25.8125,53.4844 25.5313,53.3438 25.2344,53.3438 C24.9375,53.3438 24.7344,53.4375 24.5156,53.75 L24.3438,53.6719 Z " fill="#000000"/><text fill="#000000" font-family="Arial" font-size="12" lengthAdjust="spacing" textLength="62" x="36" y="62.1543">Entreprise</text><line style="stroke:#000000;stroke-width:0.5;" x1="8" x2="100" y1="74" y2="74"/><line style="stroke:#000000;stroke-width:0.5;" x1="8" x2="100" y1="82" y2="82"/></g><!--MD5=[e8de2477f0619782a88ba6174d99456f]
class Artisan--><g id="elem_Artisan"><rect codeLine="16" fill="#F1F1F1" height="117.8438" id="Artisan" rx="1.5" ry="1.5" style="stroke:#000000;stroke-width:0.5;" width="113" x="173.5" y="7"/><ellipse cx="206.5" cy="23" fill="#ADD1B2" rx="11" ry="11" style="stroke:#181818;stroke-width:1.0;"/><path d="M208.8438,18.6719 C207.9063,18.2344 207.3125,18.0938 206.4375,18.0938 C203.8125,18.0938 201.8125,20.1719 201.8125,22.8906 L201.8125,24.0156 C201.8125,26.5938 203.9219,28.4844 206.8125,28.4844 C208.0313,28.4844 209.1875,28.1875 209.9375,27.6406 C210.5156,27.2344 210.8438,26.7813 210.8438,26.3906 C210.8438,25.9375 210.4531,25.5469 209.9844,25.5469 C209.7656,25.5469 209.5625,25.625 209.375,25.8125 C208.9219,26.2969 208.9219,26.2969 208.7344,26.3906 C208.3125,26.6563 207.625,26.7813 206.8594,26.7813 C204.8125,26.7813 203.5156,25.6875 203.5156,23.9844 L203.5156,22.8906 C203.5156,21.1094 204.7656,19.7969 206.5,19.7969 C207.0781,19.7969 207.6875,19.9531 208.1563,20.2031 C208.6406,20.4844 208.8125,20.7031 208.9063,21.1094 C208.9688,21.5156 209,21.6406 209.1406,21.7656 C209.2813,21.9063 209.5156,22.0156 209.7344,22.0156 C210,22.0156 210.2656,21.875 210.4375,21.6563 C210.5469,21.5 210.5781,21.3125 210.5781,20.8906 L210.5781,19.4688 C210.5781,19.0313 210.5625,18.9063 210.4688,18.75 C210.3125,18.4844 210.0313,18.3438 209.7344,18.3438 C209.4375,18.3438 209.2344,18.4375 209.0156,18.75 L208.8438,18.6719 Z " fill="#000000"/><text fill="#000000" font-family="Arial" font-size="12" lengthAdjust="spacing" textLength="41" x="224.5" y="27.1543">Artisan</text><line style="stroke:#000000;stroke-width:0.5;" x1="174.5" x2="285.5" y1="39" y2="39"/><text fill="#000000" font-family="Arial" font-size="12" lengthAdjust="spacing" textLength="101" x="179.5" y="54.1387">specialite: String</text><text fill="#000000" font-family="Arial" font-size="12" lengthAdjust="spacing" textLength="99" x="179.5" y="68.1074">salaireH: double</text><text fill="#000000" font-family="Arial" font-size="12" lengthAdjust="spacing" textLength="65" x="179.5" y="82.0762">numTel: int</text><text fill="#000000" font-family="Arial" font-size="12" lengthAdjust="spacing" textLength="93" x="179.5" y="96.0449">adresse: String</text><text fill="#000000" font-family="Arial" font-size="12" lengthAdjust="spacing" textLength="75" x="179.5" y="110.0137">email: String</text><line style="stroke:#000000;stroke-width:0.5;" x1="174.5" x2="285.5" y1="116.8438" y2="116.8438"/></g><!--MD5=[7231450f633845da6e92cf0373678125]
class Chantier--><g id="elem_Chantier"><rect codeLine="24" fill="#F1F1F1" height="89.9063" id="Chantier" rx="1.5" ry="1.5" style="stroke:#000000;stroke-width:0.5;" width="105" x="86.5" y="351"/><ellipse cx="112.3" cy="367" fill="#ADD1B2" rx="11" ry="11" style="stroke:#181818;stroke-width:1.0;"/><path d="M114.6438,362.6719 C113.7063,362.2344 113.1125,362.0938 112.2375,362.0938 C109.6125,362.0938 107.6125,364.1719 107.6125,366.8906 L107.6125,368.0156 C107.6125,370.5938 109.7219,372.4844 112.6125,372.4844 C113.8313,372.4844 114.9875,372.1875 115.7375,371.6406 C116.3156,371.2344 116.6438,370.7813 116.6438,370.3906 C116.6438,369.9375 116.2531,369.5469 115.7844,369.5469 C115.5656,369.5469 115.3625,369.625 115.175,369.8125 C114.7219,370.2969 114.7219,370.2969 114.5344,370.3906 C114.1125,370.6563 113.425,370.7813 112.6594,370.7813 C110.6125,370.7813 109.3156,369.6875 109.3156,367.9844 L109.3156,366.8906 C109.3156,365.1094 110.5656,363.7969 112.3,363.7969 C112.8781,363.7969 113.4875,363.9531 113.9563,364.2031 C114.4406,364.4844 114.6125,364.7031 114.7063,365.1094 C114.7688,365.5156 114.8,365.6406 114.9406,365.7656 C115.0813,365.9063 115.3156,366.0156 115.5344,366.0156 C115.8,366.0156 116.0656,365.875 116.2375,365.6563 C116.3469,365.5 116.3781,365.3125 116.3781,364.8906 L116.3781,363.4688 C116.3781,363.0313 116.3625,362.9063 116.2688,362.75 C116.1125,362.4844 115.8313,362.3438 115.5344,362.3438 C115.2375,362.3438 115.0344,362.4375 114.8156,362.75 L114.6438,362.6719 Z " fill="#000000"/><text fill="#000000" font-family="Arial" font-size="12" lengthAdjust="spacing" textLength="49" x="128.7" y="371.1543">Chantier</text><line style="stroke:#000000;stroke-width:0.5;" x1="87.5" x2="190.5" y1="383" y2="383"/><text fill="#000000" font-family="Arial" font-size="12" lengthAdjust="spacing" textLength="79" x="92.5" y="398.1387">dateD: String</text><text fill="#000000" font-family="Arial" font-size="12" lengthAdjust="spacing" textLength="77" x="92.5" y="412.1074">dateF: String</text><text fill="#000000" font-family="Arial" font-size="12" lengthAdjust="spacing" textLength="93" x="92.5" y="426.0762">adresse: String</text><line style="stroke:#000000;stroke-width:0.5;" x1="87.5" x2="190.5" y1="432.9063" y2="432.9063"/></g><!--MD5=[04d440ec53fb2cc018de6d91273d6939]
class Affecter--><g id="elem_Affecter"><rect codeLine="30" fill="#F1F1F1" height="103.875" id="Affecter" rx="1.5" ry="1.5" style="stroke:#000000;stroke-width:0.5;" width="135" x="241.5" y="186"/><ellipse cx="281.25" cy="202" fill="#ADD1B2" rx="11" ry="11" style="stroke:#181818;stroke-width:1.0;"/><path d="M283.5938,197.6719 C282.6563,197.2344 282.0625,197.0938 281.1875,197.0938 C278.5625,197.0938 276.5625,199.1719 276.5625,201.8906 L276.5625,203.0156 C276.5625,205.5938 278.6719,207.4844 281.5625,207.4844 C282.7813,207.4844 283.9375,207.1875 284.6875,206.6406 C285.2656,206.2344 285.5938,205.7813 285.5938,205.3906 C285.5938,204.9375 285.2031,204.5469 284.7344,204.5469 C284.5156,204.5469 284.3125,204.625 284.125,204.8125 C283.6719,205.2969 283.6719,205.2969 283.4844,205.3906 C283.0625,205.6563 282.375,205.7813 281.6094,205.7813 C279.5625,205.7813 278.2656,204.6875 278.2656,202.9844 L278.2656,201.8906 C278.2656,200.1094 279.5156,198.7969 281.25,198.7969 C281.8281,198.7969 282.4375,198.9531 282.9063,199.2031 C283.3906,199.4844 283.5625,199.7031 283.6563,200.1094 C283.7188,200.5156 283.75,200.6406 283.8906,200.7656 C284.0313,200.9063 284.2656,201.0156 284.4844,201.0156 C284.75,201.0156 285.0156,200.875 285.1875,200.6563 C285.2969,200.5 285.3281,200.3125 285.3281,199.8906 L285.3281,198.4688 C285.3281,198.0313 285.3125,197.9063 285.2188,197.75 C285.0625,197.4844 284.7813,197.3438 284.4844,197.3438 C284.1875,197.3438 283.9844,197.4375 283.7656,197.75 L283.5938,197.6719 Z " fill="#000000"/><text fill="#000000" font-family="Arial" font-size="12" lengthAdjust="spacing" textLength="48" x="300.75" y="206.1543">Affecter</text><line style="stroke:#000000;stroke-width:0.5;" x1="242.5" x2="375.5" y1="218" y2="218"/><text fill="#000000" font-family="Arial" font-size="12" lengthAdjust="spacing" textLength="123" x="247.5" y="233.1387">debutMission: String</text><text fill="#000000" font-family="Arial" font-size="12" lengthAdjust="spacing" textLength="102" x="247.5" y="247.1074">finMission: String</text><text fill="#000000" font-family="Arial" font-size="12" lengthAdjust="spacing" textLength="109" x="247.5" y="261.0762">nbHeures: double</text><line style="stroke:#000000;stroke-width:0.5;" x1="242.5" x2="375.5" y1="267.9063" y2="267.9063"/><text fill="#000000" font-family="Arial" font-size="12" lengthAdjust="spacing" textLength="58" x="247.5" y="283.0449">getPaye()</text></g><ellipse cx="204" cy="238" fill="#000000" rx="2" ry="2" style="stroke:none;stroke-width:1.0;"/><!--MD5=[73a869ac549d56a3a03d5079437b2a26]
link Entreprise to Artisan--><g id="link_Entreprise_Artisan"><path codeLine="38" d="M101.1648,66 C123.362,66 150.014,66 173.302,66 " fill="none" id="Entreprise-Artisan" style="stroke:#000000;stroke-width:1.0;"/><text fill="#000000" font-family="sans-serif" font-size="13" lengthAdjust="spacing" textLength="36" x="119.25" y="59.0669">Gérer</text><text fill="#000000" font-family="sans-serif" font-size="13" lengthAdjust="spacing" textLength="8" x="108.9994" y="61.9286">1</text><text fill="#000000" font-family="sans-serif" font-size="13" lengthAdjust="spacing" textLength="7" x="158.5891" y="62.1245">*</text></g><!--MD5=[c2de7d0ee42670d9ff0a26fc84907427]
link Entreprise to Chantier--><g id="link_Entreprise_Chantier"><path codeLine="39" d="M59.977,90.064 C74.0155,144.236 109.285,280.336 127.585,350.9527 " fill="none" id="Entreprise-Chantier" style="stroke:#000000;stroke-width:1.0;"/><text fill="#000000" font-family="sans-serif" font-size="13" lengthAdjust="spacing" textLength="36" x="113" y="242.5669">Gérer</text><text fill="#000000" font-family="sans-serif" font-size="13" lengthAdjust="spacing" textLength="8" x="52.4836" y="110.2362">1</text><text fill="#000000" font-family="sans-serif" font-size="13" lengthAdjust="spacing" textLength="23" x="101.0765" y="339.991">0..*</text></g><!--MD5=[36a2593de39891eb7f42d1b2391031fd]
link Artisan to apoint358238--><g id="link_Artisan_apoint358238"><path d="M221.125,125.029 C214.181,170.429 205.486,227.282 204.17,235.888 " fill="none" id="Artisan-apoint358238" style="stroke:#000000;stroke-width:1.0;"/><text fill="#000000" font-family="sans-serif" font-size="13" lengthAdjust="spacing" textLength="23" x="195.7691" y="144.805">1..*</text></g><!--MD5=[52c5347cc174a7d0ac922127e91ccc25]
link apoint358238 to Chantier--><g id="link_apoint358238_Chantier"><path d="M203.585,239.996 C200.093,248.378 175.303,307.873 157.477,350.6553 " fill="none" id="apoint358238-Chantier" style="stroke:#000000;stroke-width:1.0;"/><text fill="#000000" font-family="sans-serif" font-size="13" lengthAdjust="spacing" textLength="23" x="135.5017" y="339.9769">0..*</text></g><!--MD5=[7916c662faea564349b73db6660b5c02]
link apoint358238 to Affecter--><g id="link_apoint358238_Affecter"><path d="M206.051,238 C217.847,238 229.643,238 241.44,238 " fill="none" id="apoint358238-Affecter" style="stroke:#000000;stroke-width:1.0;stroke-dasharray:7.0,7.0;"/></g><!--MD5=[d8597ad35e0379796bf06447794fc670]
@startuml
skinparam roundcorner 3

skinparam class {
    BorderColor Black
    ArrowColor Black
    FontColor Black
    FontSize 12
    FontName Arial
}

class Entreprise {

}


class Artisan {
    specialite: String
    salaireH: double
    numTel: int
    adresse: String
    email: String
}

class Chantier {
    dateD: String
    dateF: String
    adresse: String
}

class Affecter {
    debutMission: String
    finMission: String
    nbHeures: double
    {method}getPaye()
    
}

Entreprise "1" - "*" Artisan : Gérer
Entreprise "1" - "0..*" Chantier : Gérer
Artisan "1..*" - - "0..*" Chantier

(Artisan, Chantier) . Affecter
@enduml

PlantUML version 1.2022.3beta2(Unknown compile time)
(GPL source distribution)
Java Runtime: Java(TM) SE Runtime Environment
JVM: Java HotSpot(TM) 64-Bit Server VM
Default Encoding: UTF-8
Language: en
Country: US
--></g></svg>