<?xml version="1.0" encoding="UTF-8" standalone="no"?><svg xmlns="http://www.w3.org/2000/svg" xmlns:xlink="http://www.w3.org/1999/xlink" contentStyleType="text/css" height="226px" preserveAspectRatio="none" style="width:794px;height:226px;background:#FFFFFF;" version="1.1" viewBox="0 0 794 226" width="794px" zoomAndPan="magnify"><defs/><g><!--MD5=[2c179f1b71b3de5d7f3f439f473d57fe]
cluster système_informatique--><g id="cluster_système_informatique"><path d="M8.5,128.5 L190.5,128.5 A3.75,3.75 0 0 1 193,131 L200,150.7969 L784.5,150.7969 A2.5,2.5 0 0 1 787,153.2969 L787,217 A2.5,2.5 0 0 1 784.5,219.5 L8.5,219.5 A2.5,2.5 0 0 1 6,217 L6,131 A2.5,2.5 0 0 1 8.5,128.5 " style="stroke:#000000;stroke-width:1.5;fill:none;"/><line style="stroke:#000000;stroke-width:1.5;fill:none;" x1="6" x2="200" y1="150.7969" y2="150.7969"/><text fill="#000000" font-family="sans-serif" font-size="14" font-weight="bold" lengthAdjust="spacing" textLength="181" x="10" y="143.4951">système_informatique</text></g><g id="elem_u1"><ellipse cx="93.1781" cy="183.6356" fill="#F1F1F1" rx="71.1781" ry="16.6356" style="stroke:#181818;stroke-width:0.5;"/><text fill="#000000" font-family="sans-serif" font-size="14" lengthAdjust="spacing" textLength="96" x="42.1781" y="187.3832">Calculer paye</text></g><g id="elem_u2"><ellipse cx="287.7915" cy="183.6583" fill="#F1F1F1" rx="88.7915" ry="20.1583" style="stroke:#181818;stroke-width:0.5;"/><text fill="#000000" font-family="sans-serif" font-size="14" lengthAdjust="spacing" textLength="139" x="218.2915" y="186.505">Gérer ses chantiers</text></g><g id="elem_u3"><ellipse cx="495.995" cy="183.699" fill="#F1F1F1" rx="83.995" ry="19.199" style="stroke:#181818;stroke-width:0.5;"/><text fill="#000000" font-family="sans-serif" font-size="14" lengthAdjust="spacing" textLength="128" x="431.7335" y="186.6356">Gérer ses artisans</text></g><g id="elem_u4"><ellipse cx="692.8536" cy="183.3707" fill="#F1F1F1" rx="77.3536" ry="17.8707" style="stroke:#181818;stroke-width:0.5;"/><text fill="#000000" font-family="sans-serif" font-size="14" lengthAdjust="spacing" textLength="112" x="634.1333" y="187.0454">Calculer la paye</text></g><!--MD5=[4206b647878100e6066f92523e03a5d6]
entity Entreprise--><g id="elem_Entreprise"><ellipse cx="392" cy="14" fill="#F1F1F1" rx="8" ry="8" style="stroke:#181818;stroke-width:0.5;"/><path d="M392,22 L392,49 M379,30 L405,30 M392,49 L379,64 M392,49 L405,64 " fill="none" style="stroke:#181818;stroke-width:0.5;"/><text fill="#000000" font-family="sans-serif" font-size="14" lengthAdjust="spacing" textLength="76" x="354" y="78.4951">Entreprise</text></g><!--MD5=[03f19f2bec2c1f59484c7cb103d48c89]
entity Salarié--><g id="elem_Salarié"><ellipse cx="207" cy="14" fill="#F1F1F1" rx="8" ry="8" style="stroke:#181818;stroke-width:0.5;"/><path d="M207,22 L207,49 M194,30 L220,30 M207,49 L194,64 M207,49 L220,64 " fill="none" style="stroke:#181818;stroke-width:0.5;"/><text fill="#000000" font-family="sans-serif" font-size="14" lengthAdjust="spacing" textLength="48" x="183" y="78.4951">Salarié</text></g><!--MD5=[082a96b5aed84a5c2f920bf0d73be4af]
link Entreprise to u1--><g id="link_Entreprise_u1"><path d="M353.964,54.987 C310.914,67.593 239.325,90.812 182,120.5 C158.106,132.874 133.158,150.7507 115.776,164.132 " fill="none" id="Entreprise-to-u1" style="stroke:#181818;stroke-width:1.0;"/><polygon fill="#181818" points="111.526,167.4311,121.0884,165.0729,115.4759,164.3655,116.1833,158.753,111.526,167.4311" style="stroke:#181818;stroke-width:1.0;"/></g><!--MD5=[9467da5e2a1de3bbf0de2724d3b6f46b]
link Entreprise to u2--><g id="link_Entreprise_u2"><path d="M363.856,81.845 C345.132,106.69 321.14,138.5252 305.205,159.6705 " fill="none" id="Entreprise-to-u2" style="stroke:#181818;stroke-width:1.0;"/><polygon fill="#181818" points="302.129,163.7518,310.7402,158.972,305.1384,159.7588,304.3515,154.157,302.129,163.7518" style="stroke:#181818;stroke-width:1.0;"/></g><!--MD5=[894aa354e792f07c6a6f556b002eb15e]
link Entreprise to u3--><g id="link_Entreprise_u3"><path d="M420.144,81.845 C439.093,106.989 463.438,139.2934 479.368,160.4301 " fill="none" id="Entreprise-to-u3" style="stroke:#181818;stroke-width:1.0;"/><polygon fill="#181818" points="482.437,164.5032,480.2145,154.9084,479.4276,160.5102,473.8258,159.7234,482.437,164.5032" style="stroke:#181818;stroke-width:1.0;"/></g><!--MD5=[c99b0ea49e63ac6543c1a3f902578a29]
link Entreprise to u4--><g id="link_Entreprise_u4"><path d="M430.281,55.773 C472.471,68.843 541.804,92.248 598,120.5 C622.375,132.754 648.187,149.9 666.743,163.0558 " fill="none" id="Entreprise-to-u4" style="stroke:#181818;stroke-width:1.0;"/><polygon fill="#181818" points="670.825,165.9685,665.8221,157.4849,666.7549,163.0643,661.1755,163.9971,670.825,165.9685" style="stroke:#181818;stroke-width:1.0;"/></g><!--MD5=[d6fa6fbaee51eb0da546091eb2548c76]
link Salarié to Entreprise--><g id="link_Salarié_Entreprise"><path d="M231.186,43.5 C260.965,43.5 312.086,43.5 348.701,43.5 " fill="none" id="Salarié-to-Entreprise" style="stroke:#181818;stroke-width:1.0;"/><polygon fill="#181818" points="353.994,43.5,344.994,39.5,348.994,43.5,344.994,47.5,353.994,43.5" style="stroke:#181818;stroke-width:1.0;"/><text fill="#000000" font-family="sans-serif" font-size="13" lengthAdjust="spacing" textLength="86" x="249.5" y="36.5669">être employé</text></g><!--MD5=[b1dc06c718f02da8d0d3524ae53f9b11]
@startuml
package système_informatique{
    usecase u1 as "Calculer paye"
    usecase u2 as "Gérer ses chantiers"
    usecase u3 as "Gérer ses artisans"
    usecase u4 as "Calculer la paye"
}

actor Entreprise 
actor Salarié

Entreprise - -> u1
Entreprise - -> u2 
Entreprise - -> u3 
Entreprise - -> u4

Salarié -> Entreprise : être employé
@enduml

PlantUML version 1.2022.3beta2(Unknown compile time)
(GPL source distribution)
Java Runtime: Java(TM) SE Runtime Environment
JVM: Java HotSpot(TM) 64-Bit Server VM
Default Encoding: UTF-8
Language: en
Country: US
--></g></svg>